<svg width="334" height="240" viewBox="0 0 334 240" fill="none" xmlns="http://www.w3.org/2000/svg">
<path d="M163.136 0C162.666 1.41361 162.146 2.80759 161.591 4.18039C150.999 30.3833 129.497 48.6486 95.534 48.6486H70.8409C31.493 48.6486 0 80.7264 0 120C0 159.274 31.493 191.351 70.8409 191.351H95.534C129.474 191.351 151.002 209.623 161.591 235.82C162.146 237.192 162.666 238.586 163.136 240H170.828C171.298 238.586 171.818 237.192 172.373 235.82C182.963 209.621 203.268 191.351 238.43 191.351H262.718C302.066 191.351 333.559 159.274 333.559 120C333.559 80.7264 302.066 48.6487 262.718 48.6486H238.43C203.256 48.6486 182.964 30.3826 172.373 4.1804C171.818 2.80759 171.298 1.41361 170.828 0H163.136Z" fill="#00B356"/>
<path d="M68.2341 138.65V115.533C69.944 112.322 73.6488 109.896 77.2823 109.896C82.0557 109.896 84.4781 112.75 84.4781 118.529V138.65H92.1726V115.747C93.6688 112.393 97.4448 109.896 101.15 109.896C105.923 109.896 108.274 112.75 108.274 118.529V138.65H115.969V116.745C115.969 107.612 111.266 102.689 103.572 102.689C97.9435 102.689 93.3126 105.329 90.819 108.968C89.3228 105.258 85.2618 102.689 79.7759 102.689C74.7174 102.689 70.8702 104.544 68.2341 108.183V103.617H60.5396V138.65H68.2341Z" fill="white"/>
<path d="M142.962 132.8C139.613 132.8 136.906 131.658 134.697 129.446C132.489 127.234 131.42 124.451 131.42 121.098C131.42 117.816 132.489 115.033 134.697 112.821C136.906 110.609 139.685 109.468 142.962 109.468C146.239 109.468 148.947 110.609 151.155 112.821C153.364 115.033 154.432 117.816 154.432 121.098C154.432 124.451 153.364 127.234 151.155 129.446C148.947 131.658 146.239 132.8 142.962 132.8ZM142.962 139.578C148.519 139.578 153.079 137.794 156.712 134.227C160.346 130.588 162.127 126.235 162.127 121.098C162.127 115.961 160.346 111.608 156.712 108.041C153.079 104.473 148.519 102.689 142.962 102.689C137.333 102.689 132.774 104.473 129.14 108.041C125.507 111.608 123.726 115.961 123.726 121.098C123.726 126.307 125.507 130.659 129.14 134.227C132.774 137.794 137.333 139.578 142.962 139.578Z" fill="white"/>
<path d="M177.591 138.65V122.81L193.193 138.65H203.738L184.644 119.314L201.244 103.617H191.412L177.591 116.888V88.7044H169.896V138.65H177.591Z" fill="white"/>
<path d="M242.399 132.657C240.689 132.657 239.478 131.373 239.478 129.161V116.103C239.478 107.541 232.994 102.689 223.305 102.689C218.246 102.689 214.043 103.688 210.552 105.686V112.464C213.9 110.395 217.605 109.325 221.595 109.325C228.434 109.325 231.854 111.894 231.854 116.96V118.886C228.648 117.102 224.872 116.175 220.669 116.175C216.75 116.175 213.402 117.174 210.694 119.243C207.987 121.241 206.633 124.095 206.633 127.805C206.633 131.444 207.844 134.369 210.338 136.438C212.832 138.508 215.966 139.578 219.742 139.578C225.157 139.578 229.432 137.794 232.638 134.155C233.564 137.509 236.058 139.15 239.976 139.15C241.9 139.15 243.396 138.793 244.465 138.008V132.157C243.824 132.514 243.182 132.657 242.399 132.657ZM231.854 128.733C229.646 131.087 225.87 132.942 221.88 132.942C217.391 132.942 214.328 131.087 214.328 127.377C214.328 123.952 217.391 121.954 222.521 121.954C225.798 121.954 228.933 122.81 231.854 124.451V128.733Z" fill="white"/>
<path d="M259.76 138.65V117.174C261.398 113.535 265.744 110.324 271.23 110.324C272.014 110.324 272.726 110.395 273.368 110.467V102.761C273.154 102.689 272.94 102.689 272.655 102.689C267.241 102.689 262.111 105.615 259.76 109.682V103.617H252.065V138.65H259.76Z" fill="white"/>
</svg>
